<svg version="1.1" xmlns="http://www.w3.org/2000/svg" xmlns:xlink="http://www.w3.org/1999/xlink" width="800px" height="800px" viewBox="0,0,256,256"><g fill="#26877f" fill-rule="none" stroke="none" stroke-width="1" stroke-linecap="butt" stroke-linejoin="miter" stroke-miterlimit="10" stroke-dasharray="" stroke-dashoffset="0" font-family="none" font-weight="none" font-size="none" text-anchor="none" style="mix-blend-mode: normal"><g transform="scale(10.66667,10.66667)"><path d="M12,1.25c0.4142,0 0.75,0.33579 0.75,0.75v2c0,0.41421 -0.3358,0.75 -0.75,0.75c-0.4142,0 -0.75,-0.33579 -0.75,-0.75v-2c0,-0.41421 0.3358,-0.75 0.75,-0.75zM5.46967,5.46967c0.29289,-0.29289 0.76777,-0.29289 1.06066,0l0.34326,0.34326c0.29289,0.29289 0.29289,0.76777 0,1.06066c-0.29289,0.29289 -0.76777,0.29289 -1.06066,0l-0.34326,-0.34326c-0.29289,-0.29289 -0.29289,-0.76777 0,-1.06066zM18.5303,5.46967c0.2929,0.29289 0.2929,0.76777 0,1.06066l-0.3432,0.34326c-0.2929,0.29289 -0.7678,0.29289 -1.0607,0c-0.2929,-0.29289 -0.2929,-0.76777 0,-1.06066l0.3433,-0.34326c0.2929,-0.29289 0.7677,-0.29289 1.0606,0zM1.25,12c0,-0.4142 0.33579,-0.75 0.75,-0.75h2c0.41421,0 0.75,0.3358 0.75,0.75c0,0.4142 -0.33579,0.75 -0.75,0.75h-2c-0.41421,0 -0.75,-0.3358 -0.75,-0.75zM19.25,12c0,-0.4142 0.3358,-0.75 0.75,-0.75h2c0.4142,0 0.75,0.3358 0.75,0.75c0,0.4142 -0.3358,0.75 -0.75,0.75h-2c-0.4142,0 -0.75,-0.3358 -0.75,-0.75zM6.87338,17.1266c0.29289,0.2929 0.29289,0.7678 0,1.0607l-0.34305,0.343c-0.29289,0.2929 -0.76777,0.2929 -1.06066,0c-0.29289,-0.2929 -0.29289,-0.7677 0,-1.0606l0.34305,-0.3431c0.29289,-0.2929 0.76776,-0.2929 1.06066,0zM17.1266,17.1266c0.2929,-0.2929 0.7678,-0.2929 1.0607,0l0.343,0.3431c0.2929,0.2929 0.2929,0.7677 0,1.0606c-0.2929,0.2929 -0.7677,0.2929 -1.0606,0l-0.3431,-0.343c-0.2929,-0.2929 -0.2929,-0.7678 0,-1.0607zM12,19.25c0.4142,0 0.75,0.3358 0.75,0.75v2c0,0.4142 -0.3358,0.75 -0.75,0.75c-0.4142,0 -0.75,-0.3358 -0.75,-0.75v-2c0,-0.4142 0.3358,-0.75 0.75,-0.75z" fill-rule="evenodd"></path><path d="M7,11.0595c0,2.5423 2.00971,3.8971 3.4809,5.1097c0.5191,0.4279 1.0191,0.8308 1.5191,0.8308c0.5,0 1,-0.4029 1.5191,-0.8308c1.4712,-1.2126 3.4809,-2.5674 3.4809,-5.1097c0,-2.54232 -2.7501,-4.34529 -5,-1.90113c-2.24992,-2.44416 -5,-0.64119 -5,1.90113z" fill-rule="nonzero"></path></g></g></svg>