<svg version="1.1" xmlns="http://www.w3.org/2000/svg" xmlns:xlink="http://www.w3.org/1999/xlink" width="800px" height="800px" viewBox="0,0,256,256"><g fill="#26877f" fill-rule="none" stroke="none" stroke-width="1" stroke-linecap="butt" stroke-linejoin="miter" stroke-miterlimit="10" stroke-dasharray="" stroke-dashoffset="0" font-family="none" font-weight="none" font-size="none" text-anchor="none" style="mix-blend-mode: normal"><g transform="translate(-5.33333,0) scale(10.66667,10.66667)"><circle cx="12" cy="6" r="4" fill-rule="nonzero"></circle><path d="M18.0947,15.0312c-0.4248,-0.0312 -0.946,-0.0312 -1.5947,-0.0312c-1.6499,0 -2.4749,0 -2.9874,0.5126c-0.5126,0.5125 -0.5126,1.3375 -0.5126,2.9874c0,1.1663 0,1.9204 0.1811,2.4433c-0.384,0.0373 -0.7786,0.0567 -1.1811,0.0567c-3.86599,0 -7,-1.7909 -7,-4c0,-2.2091 3.13401,-4 7,-4c2.6134,0 4.8924,0.8184 6.0947,2.0312z" fill-rule="nonzero" opacity="0.5"></path><path d="M13.5126,21.4874c0.5125,0.5126 1.3375,0.5126 2.9874,0.5126c1.6499,0 2.4749,0 2.9874,-0.5126c0.5126,-0.5125 0.5126,-1.3375 0.5126,-2.9874c0,-1.6499 0,-2.4749 -0.5126,-2.9874c-0.5125,-0.5126 -1.3375,-0.5126 -2.9874,-0.5126c-1.6499,0 -2.4749,0 -2.9874,0.5126c-0.5126,0.5125 -0.5126,1.3375 -0.5126,2.9874c0,1.6499 0,2.4749 0.5126,2.9874zM15.5266,19.9765c-0.7021,-0.5027 -1.5266,-1.0932 -1.5266,-2.1167c0,-1.1299 1.375,-1.9313 2.5,-0.845c1.125,-1.0863 2.5,-0.2849 2.5,0.845c0,1.0235 -0.8245,1.614 -1.5266,2.1167c-0.0729,0.0522 -0.1446,0.1035 -0.2138,0.1543c-0.2596,0.1901 -0.5096,0.3692 -0.7596,0.3692c-0.25,0 -0.5,-0.1791 -0.7596,-0.3692c-0.0692,-0.0508 -0.1409,-0.1021 -0.2138,-0.1543z" fill-rule="evenodd"></path></g></g></svg>