<svg version="1.1" xmlns="http://www.w3.org/2000/svg" xmlns:xlink="http://www.w3.org/1999/xlink" width="600" height="600" viewBox="0,0,256,256"><g fill="#26877f" fill-rule="nonzero" stroke="none" stroke-width="none" stroke-linecap="none" stroke-linejoin="none" stroke-miterlimit="10" stroke-dasharray="" stroke-dashoffset="0" font-family="none" font-weight="none" font-size="none" text-anchor="none" style="mix-blend-mode: normal"><g transform="translate(-0.00032,0.00003) scale(0.42667,0.42667)"><g transform="translate(13.90117,12.16879) scale(0.95173,0.95116)" id="g10449"><g transform="translate(273.60014,263.99768) scale(1.38076,1.27009)" id="path10026" stroke-width="1.05103" stroke-linecap="butt" stroke-linejoin="miter" font-family="Inter, apple-system, BlinkMacSystemFont, &quot;Helvetica Neue&quot;, &quot;Segoe UI&quot;, &quot;Fira Sans&quot;, Roboto, Oxygen, Ubuntu, &quot;Droid Sans&quot;, Arial, sans-serif" font-weight="400" font-size="16" text-anchor="start"></g><g transform="translate(36.77405,-9.45039) scale(1.50923,1.39556)" id="g11314" stroke-width="50.6951" stroke-linecap="butt" stroke-linejoin="miter" font-family="Inter, apple-system, BlinkMacSystemFont, &quot;Helvetica Neue&quot;, &quot;Segoe UI&quot;, &quot;Fira Sans&quot;, Roboto, Oxygen, Ubuntu, &quot;Droid Sans&quot;, Arial, sans-serif" font-weight="400" font-size="16" text-anchor="start"></g><path d="M132.50586,39.77344c-80.78688,0 -147.11133,66.38099 -147.11133,147.17578v231.32422c0,80.79479 66.32445,147.17578 147.11133,147.17578h336.20508c80.78688,0 147.11328,-66.38099 147.11328,-147.17578v-231.32422c0,-80.79479 -66.3264,-147.17578 -147.11328,-147.17578zM132.50586,123.85547h336.20508c35.63231,0 63.02929,27.39904 63.02929,63.09375v231.32422c0,35.69471 -27.39698,63.09375 -63.02929,63.09375h-336.20508c-35.63231,0 -63.0293,-27.39904 -63.0293,-63.09375v-231.32422c0,-35.69471 27.39699,-63.09375 63.0293,-63.09375z" id="rect240" stroke-width="1.05103" stroke-linecap="round" stroke-linejoin="round"></path><path d="M67.46484,81.88672c-11.1379,0.52683 -21.6103,5.45672 -29.11328,13.70508c-15.62352,17.17587 -14.3652,43.76501 2.81055,59.38867l231.15625,210.27148c16.03918,14.58783 40.5409,14.58783 56.58008,0l231.15625,-210.27148c17.17575,-15.62366 18.43406,-42.2128 2.81054,-59.38867c-15.62422,-17.17517 -42.21332,-18.43262 -59.38867,-2.80859l-202.86719,184.53516l-202.86914,-184.53516c-8.24757,-7.50316 -19.13793,-11.42274 -30.27539,-10.89648z" id="path404" stroke-width="1.05103" stroke-linecap="round" stroke-linejoin="round"></path><g transform="translate(-0.51902,0)" id="g1810" stroke-width="1.05103" stroke-linecap="butt" stroke-linejoin="miter"><path d="M418.54102,322.93555l-45.69727,43.45898l130.79492,137.53125l45.69727,-43.45898z" id="path1686"></path><path d="M183.54297,323.11719l-130.79492,139.73242l46.03906,43.0957l130.79492,-139.73242z" id="path1686-3"></path></g></g></g></g></svg>