<svg version="1.1" xmlns="http://www.w3.org/2000/svg" xmlns:xlink="http://www.w3.org/1999/xlink" width="800px" height="800px" viewBox="0,0,256,256"><g fill="#26877f" fill-rule="nonzero" stroke="none" stroke-width="1" stroke-linecap="butt" stroke-linejoin="miter" stroke-miterlimit="10" stroke-dasharray="" stroke-dashoffset="0" font-family="none" font-weight="none" font-size="none" text-anchor="none" style="mix-blend-mode: normal"><g transform="scale(0.46715,0.46715)"><g><path d="M409.545,185.969l-179.165,-7.724c-5.12,-0.247 -9.439,3.748 -9.658,8.86c-0.219,5.115 3.748,9.439 8.855,9.659l167.04,7.204l-32.842,102.468h-146.154l-26.404,-143.769c-0.579,-3.155 -2.749,-5.783 -5.727,-6.954l-43.245,-16.99c-4.77,-1.862 -10.142,0.474 -12.016,5.239c-1.869,4.765 0.474,10.146 5.239,12.015l38.447,15.105l26.875,146.298c0.807,4.396 4.639,7.594 9.112,7.594h4.459l-10.179,28.273c-0.852,2.366 -0.501,4.998 0.945,7.061c1.449,2.054 3.804,3.281 6.319,3.281h7.138c-4.424,4.924 -7.138,11.411 -7.138,18.533c0,15.331 12.473,27.797 27.799,27.797c15.332,0 27.804,-12.471 27.804,-27.797c0,-7.122 -2.719,-13.609 -7.141,-18.533h60.616c-4.425,4.924 -7.141,11.411 -7.141,18.533c0,15.331 12.47,27.797 27.797,27.797c15.327,0 27.802,-12.471 27.802,-27.797c0,-7.122 -2.721,-13.609 -7.141,-18.533h8.695c4.266,0 7.719,-3.458 7.719,-7.724c0,-4.267 -3.458,-7.72 -7.719,-7.72h-148.098l8.34,-23.167h139.761c4.027,0 7.593,-2.6 8.82,-6.44l38.615,-120.474c0.887,-2.751 0.43,-5.757 -1.223,-8.128c-1.652,-2.38 -4.317,-3.843 -7.206,-3.967zM341.192,369.764c6.813,0 12.349,5.544 12.349,12.354c0,6.81 -5.545,12.354 -12.349,12.354c-6.814,0 -12.358,-5.544 -12.358,-12.354c-0.001,-6.814 5.539,-12.354 12.358,-12.354zM239.251,369.764c6.814,0 12.358,5.544 12.358,12.354c0,6.81 -5.544,12.354 -12.358,12.354c-6.81,0 -12.354,-5.544 -12.354,-12.354c0,-6.814 5.54,-12.354 12.354,-12.354zM385.211,63.391l13.497,-23.38c2.487,-4.31 7.999,-5.778 12.288,-3.292c4.308,2.485 5.778,7.985 3.291,12.291l-13.488,23.379c-1.671,2.887 -4.695,4.501 -7.804,4.501c-1.525,0 -3.08,-0.387 -4.489,-1.204c-4.302,-2.49 -5.778,-7.99 -3.295,-12.295zM472.323,159.502c-2.488,-4.3 -1.013,-9.805 3.29,-12.293l23.382,-13.495c4.294,-2.485 9.811,-1.018 12.293,3.292c2.483,4.301 1.009,9.808 -3.295,12.293l-23.382,13.495c-1.419,0.821 -2.959,1.208 -4.49,1.208c-3.108,0.001 -6.132,-1.613 -7.798,-4.5zM548,274.004c0,4.971 -4.033,8.999 -9.003,8.999h-26.995c-4.961,0 -8.998,-4.028 -8.998,-8.999c0,-4.97 4.037,-8.998 8.998,-8.998h26.995c4.969,0 9.003,4.028 9.003,8.998zM511.288,411.002c-1.671,2.884 -4.694,4.499 -7.803,4.499c-1.526,0 -3.076,-0.393 -4.49,-1.204l-23.382,-13.497c-4.303,-2.492 -5.778,-7.99 -3.29,-12.293c2.478,-4.304 7.999,-5.778 12.288,-3.295l23.382,13.497c4.303,2.482 5.778,7.989 3.295,12.293zM414.288,498.999c2.487,4.299 1.017,9.806 -3.291,12.289c-1.414,0.821 -2.963,1.213 -4.494,1.213c-3.099,0 -6.133,-1.614 -7.799,-4.503l-13.492,-23.378c-2.487,-4.303 -1.018,-9.811 3.285,-12.293c4.304,-2.482 9.811,-1.022 12.294,3.285zM282.993,512.002l0.01,26.994c0,4.971 -4.028,9.003 -9.003,9.003c-4.966,0 -8.998,-4.027 -8.998,-8.998l-0.005,-26.994c0,-4.966 4.023,-9.003 8.998,-9.003c4.97,0 8.998,4.027 8.998,8.998zM162.786,484.611l-13.486,23.387c-1.668,2.889 -4.695,4.503 -7.81,4.503c-1.524,0 -3.073,-0.392 -4.483,-1.213c-4.305,-2.483 -5.783,-7.98 -3.297,-12.289l13.49,-23.387c2.49,-4.308 8.006,-5.768 12.298,-3.295c4.295,2.484 5.777,7.991 3.288,12.294zM75.677,388.497c2.49,4.303 1.017,9.811 -3.288,12.293l-23.384,13.507c-1.414,0.812 -2.964,1.204 -4.487,1.204c-3.111,0 -6.13,-1.615 -7.804,-4.499c-2.485,-4.304 -1.013,-9.811 3.293,-12.293l23.379,-13.497c4.305,-2.492 9.805,-1.018 12.291,3.285zM36.002,283.003h-26.999c-4.968,0 -9.003,-4.028 -9.003,-8.999c0,-4.97 4.028,-8.998 9.003,-8.998l26.999,-0.005c4.97,0 8.998,4.028 8.998,8.999c0,4.97 -4.028,9.003 -8.998,9.003zM75.686,159.502c-1.673,2.887 -4.693,4.497 -7.808,4.497c-1.526,0 -3.073,-0.388 -4.487,-1.204l-23.39,-13.495c-4.301,-2.492 -5.778,-7.992 -3.292,-12.298c2.49,-4.296 7.99,-5.777 12.295,-3.292l23.384,13.495c4.306,2.48 5.779,7.992 3.298,12.297zM133.709,49.004c-2.49,-4.301 -1.013,-9.81 3.288,-12.291c4.305,-2.485 9.817,-1.013 12.291,3.288l13.506,23.385c2.485,4.305 1.013,9.81 -3.292,12.291c-1.418,0.821 -2.963,1.213 -4.492,1.213c-3.102,0 -6.133,-1.615 -7.799,-4.501zM265.001,35.997v-26.999c0,-4.97 4.033,-8.998 8.999,-8.998c4.971,0 9.003,4.028 9.003,8.998v26.999c0,4.975 -4.032,9.003 -9.003,9.003c-4.966,0 -8.999,-4.028 -8.999,-9.003z"></path></g></g></g></svg>