<svg version="1.1" xmlns="http://www.w3.org/2000/svg" xmlns:xlink="http://www.w3.org/1999/xlink" width="800px" height="800px" viewBox="0,0,256,256"><g fill="#26877f" fill-rule="nonzero" stroke="none" stroke-width="1" stroke-linecap="butt" stroke-linejoin="miter" stroke-miterlimit="10" stroke-dasharray="" stroke-dashoffset="0" font-family="none" font-weight="none" font-size="none" text-anchor="none" style="mix-blend-mode: normal"><g transform="translate(0.06167,-0.06104) scale(10.66667,10.66667)"><path d="M6.99486,7.00636c-0.39053,0.39053 -0.39053,1.02369 0,1.41422l3.58514,3.58512l-3.58514,3.5852c-0.39053,0.3905 -0.39053,1.0237 0,1.4142c0.39052,0.3905 1.02369,0.3905 1.41421,0l3.58513,-3.5852l3.5852,3.5852c0.3905,0.3905 1.0237,0.3905 1.4142,0c0.3905,-0.3905 0.3905,-1.0237 0,-1.4142l-3.5852,-3.5852l3.5852,-3.58511c0.3905,-0.39052 0.3905,-1.02369 0,-1.41421c-0.3906,-0.39053 -1.0237,-0.39053 -1.4142,0l-3.5852,3.58512l-3.58513,-3.58514c-0.39052,-0.39052 -1.02369,-0.39052 -1.41421,0z"></path></g></g></svg>