<svg version="1.1" xmlns="http://www.w3.org/2000/svg" xmlns:xlink="http://www.w3.org/1999/xlink" width="800px" height="800px" viewBox="0,0,256,256"><g fill="#26877f" fill-rule="nonzero" stroke="none" stroke-width="1" stroke-linecap="butt" stroke-linejoin="miter" stroke-miterlimit="10" stroke-dasharray="" stroke-dashoffset="0" font-family="none" font-weight="none" font-size="none" text-anchor="none" style="mix-blend-mode: normal"><g transform="translate(-0.00004,-0.00004)"><g><g transform="scale(10.66667,10.66667)"><g id="grid_system" font-family="Inter, apple-system, BlinkMacSystemFont, &quot;Helvetica Neue&quot;, &quot;Segoe UI&quot;, &quot;Fira Sans&quot;, Roboto, Oxygen, Ubuntu, &quot;Droid Sans&quot;, Arial, sans-serif" font-weight="400" font-size="16" text-anchor="start" visibility="hidden"></g><g id="_icons"><g><path d="M12,2c-5.5,0 -10,4.5 -10,10c0,5.5 4.5,10 10,10c5.5,0 10,-4.5 10,-10c0,-5.5 -4.5,-10 -10,-10zM12,20c-4.4,0 -8,-3.6 -8,-8c0,-4.4 3.6,-8 8,-8c4.4,0 8,3.6 8,8c0,4.4 -3.6,8 -8,8z"></path><path d="M13.7,8.3c-0.4,-0.4 -1,-0.4 -1.4,0l-3,3c-0.4,0.4 -0.4,1 0,1.4l3,3c0.2,0.2 0.5,0.3 0.7,0.3c0.2,0 0.5,-0.1 0.7,-0.3c0.4,-0.4 0.4,-1 0,-1.4l-2.3,-2.3l2.3,-2.3c0.4,-0.4 0.4,-1 0,-1.4z"></path></g></g></g></g></g></g></svg>