<svg version="1.1" xmlns="http://www.w3.org/2000/svg" xmlns:xlink="http://www.w3.org/1999/xlink" width="800px" height="800px" viewBox="0,0,256,256"><g fill="none" fill-rule="evenodd" stroke="#26877f" stroke-width="2" stroke-linecap="round" stroke-linejoin="round" stroke-miterlimit="10" stroke-dasharray="" stroke-dashoffset="0" font-family="none" font-weight="none" font-size="none" text-anchor="none" style="mix-blend-mode: normal"><g transform="translate(0.00009,-0.1681) scale(10.66667,10.66667)"><path d="M12,6.00019c-1.7994,-2.09702 -4.80623,-2.74509 -7.06077,-0.82485c-2.25455,1.92024 -2.57196,5.13076 -0.80145,7.40186c1.47206,1.8882 5.92702,5.8707 7.38712,7.1597c0.1633,0.1442 0.245,0.2163 0.3403,0.2446c0.0831,0.0247 0.1741,0.0247 0.2573,0c0.0953,-0.0283 0.1769,-0.1004 0.3403,-0.2446c1.4601,-1.289 5.915,-5.2715 7.3871,-7.1597c1.7705,-2.2711 1.4918,-5.50182 -0.8015,-7.40186c-2.2933,-1.90004 -5.249,-1.27217 -7.0484,0.82485z"></path></g></g></svg>