<svg version="1.1" xmlns="http://www.w3.org/2000/svg" xmlns:xlink="http://www.w3.org/1999/xlink" width="800px" height="800px" viewBox="0,0,256,256"><g fill="#26877f" fill-rule="nonzero" stroke="none" stroke-width="1" stroke-linecap="butt" stroke-linejoin="miter" stroke-miterlimit="10" stroke-dasharray="" stroke-dashoffset="0" font-family="none" font-weight="none" font-size="none" text-anchor="none" style="mix-blend-mode: normal"><g transform="translate(23.096,0) scale(8,8)"><g id="icomoon-ignore" font-family="Inter, apple-system, BlinkMacSystemFont, &quot;Helvetica Neue&quot;, &quot;Segoe UI&quot;, &quot;Fira Sans&quot;, Roboto, Oxygen, Ubuntu, &quot;Droid Sans&quot;, Arial, sans-serif" font-weight="400" font-size="16" text-anchor="start"></g><path d="M13.114,2.887c-7.243,0 -13.114,5.871 -13.114,13.113c0,7.242 5.871,13.113 13.114,13.113c7.242,0 13.112,-5.871 13.112,-13.113c0,-7.242 -5.87,-13.113 -13.112,-13.113zM13.114,28.064c-6.653,0 -12.065,-5.412 -12.065,-12.064c0,-6.652 5.412,-12.063 12.065,-12.063c6.652,0 12.063,5.412 12.063,12.063c0,6.651 -5.411,12.064 -12.063,12.064z"></path><path d="M12.318,10.363l-0.742,-0.742l-6.379,6.379l6.379,6.379l0.742,-0.742l-5.113,-5.113h12.726v-1.049h-12.726z"></path></g></g></svg>