<svg version="1.1" xmlns="http://www.w3.org/2000/svg" xmlns:xlink="http://www.w3.org/1999/xlink" width="800px" height="800px" viewBox="0,0,256,256"><g fill="#26877f" fill-rule="evenodd" stroke="none" stroke-width="1" stroke-linecap="butt" stroke-linejoin="miter" stroke-miterlimit="10" stroke-dasharray="" stroke-dashoffset="0" font-family="none" font-weight="none" font-size="none" text-anchor="none" style="mix-blend-mode: normal"><g transform="translate(-0.95522,0.95547) scale(10.66667,10.66667)"><path d="M17.3545,22.2323c-2.0201,-0.5061 -6.1556,-1.933 -9.90474,-5.6821c-3.74911,-3.7491 -5.17596,-7.88461 -5.68209,-9.9047c-0.29086,-1.16091 0.23291,-2.28116 1.12102,-2.91553l2.32825,-1.66304c1.36228,-0.97305 3.25738,-0.64286 4.2103,0.73358l1.46576,2.11725c0.6222,0.89874 0.4076,2.13054 -0.4819,2.76589l-1.16876,0.83484c0.17689,0.67661 0.72705,2.06611 2.45006,3.78911c1.723,1.723 3.1125,2.2731 3.7891,2.45l0.8348,-1.1688c0.6354,-0.8894 1.8672,-1.1041 2.7659,-0.4819l2.1173,1.4658c1.3764,0.953 1.7066,2.848 0.7335,4.2103l-1.663,2.3283c-0.6344,0.8881 -1.7546,1.4119 -2.9155,1.121zM8.86397,15.136c3.40943,3.4094 7.17183,4.7041 8.97653,5.1563c0.2638,0.066 0.5827,-0.0365 0.802,-0.3435l1.6631,-2.3283c0.3243,-0.454 0.2143,-1.0857 -0.2446,-1.4034l-2.1172,-1.4658l-0.8959,1.2543c-0.3661,0.5126 -1.0432,0.9146 -1.8316,0.7445c-0.984,-0.2123 -2.803,-0.8932 -4.9381,-3.0283c-2.1351,-2.1351 -2.81601,-3.9541 -3.02833,-4.9381c-0.1701,-0.7884 0.23194,-1.46549 0.74452,-1.83162l1.25425,-0.8959l-1.46579,-2.11725c-0.31764,-0.45882 -0.94934,-0.56888 -1.40343,-0.24453l-2.32825,1.66304c-0.30704,0.21931 -0.40955,0.53821 -0.34346,0.80199c0.45218,1.80475 1.74688,5.56717 5.15626,8.97657z"></path></g></g></svg>